
<!-- width="325px" height="410px" -->
<!-- 270 650 -->

<svg id="sil" viewBox="0 0 270 550" xmlns="http://www.w3.org/2000/svg">
                      <title>Silueta</title><metadata id="siluetaH">image/svg+xml</metadata>
                      <g>
                        <defs>
                          <linearGradient id="statsPerc" x1="0" y1="1" x2="0" y2="0">
                            <stop id="stop1" offset="0" stop-color="#364a5d"></stop>
                            <stop id="stop2" offset="0" stop-color="#F2F7F7"/>
                          </linearGradient>
                        </defs>

                        <path id="manSil" fill="url(#statsPerc)" d="m202.59053,369.918854l0,205.281219l-61.5,0l0,-204.531219l-14.5,0l0,204.531219l-61.5,0l0,-205.281219l0,-175.78125l-16.0625,0l0,151.0625l-41.5,0l0,-152.28125c0,-24.93454 20.565475,-52.28125 45.5,-52.28125l161.59375,0c25.404938,0 45.499985,28.876312 45.499985,54.28125l0,150.28125l-41.499985,0l0,-151.0625l-16.03125,0l0,175.78125zm-68.59375,-364.28125c-36.846008,0 -66.75,29.903992 -66.75,66.75c0,36.846008 29.904022,66.75 66.75,66.75c36.846008,0 66.75,-29.903992 66.75,-66.75c0,-36.846008 -29.903992,-66.749985 -66.75,-66.75z"/>
                      </g>
</svg>